<svg xmlns="http://www.w3.org/2000/svg" viewBox="0 0 1140 360" width="1140" height="360">
	<style>
		tspan { white-space:pre }
		.shp0 { fill: #68217a } 
		.shp1 { fill: #e44d26 } 
		.shp2 { fill: #f16529 } 
		.shp3 { fill: #ebebeb } 
		.shp4 { fill: #000000 } 
		.shp5 { fill: #ffffff } 
		.shp6 { fill: #0071bc } 
		.shp7 { fill: #29abe2 } 
		.shp8 { fill: #b3b3b3 } 
		.shp9 { fill: #e6e6e6 } 
		.shp10 { fill: #f0db4f } 
		.shp11 { fill: #353630 } 
		.txt12 { font-size: 43px;fill: #000000;font-weight: 400;font-family: "DejaVuSans", "DejaVu Sans" } 
	</style>
	<path id="Layer" class="shp0" d="M0 0L1140 0L1140 360L0 360L0 0Z" />
	<path id="Layer" class="shp1" d="M625.46 132.8L619.65 67.72L683.42 67.72L677.61 132.79L651.5 140.03L625.46 132.8Z" />
	<path id="Layer" class="shp2" d="M651.53 134.5L672.63 128.65L677.6 73.04L651.53 73.04L651.53 134.5Z" />
	<path id="Layer" class="shp3" d="M651.53 97.18L640.97 97.18L640.24 89L651.53 89L651.53 81.02L651.51 81.02L631.52 81.02L631.71 83.16L633.67 105.16L651.53 105.16L651.53 97.18Z" />
	<path id="Layer" class="shp3" d="M651.53 117.91L651.5 117.92L642.61 115.52L642.04 109.15L637.72 109.15L634.03 109.15L635.15 121.69L651.5 126.22L651.53 126.21L651.53 117.91Z" />
	<path id="Layer" class="shp4" d="M625.59 50.03L629.64 50.03L629.64 54.04L633.36 54.04L633.36 50.03L637.41 50.03L637.41 62.17L633.36 62.17L633.36 58.1L629.64 58.1L629.64 62.17L625.59 62.17L625.59 50.03ZM642.75 54.05L639.17 54.05L639.17 50.03L650.38 50.03L650.38 54.05L646.8 54.05L646.8 62.17L642.75 62.17L642.75 54.05ZM652.15 50.03L656.38 50.03L658.98 54.29L661.58 50.03L665.81 50.03L665.81 62.17L661.77 62.17L661.77 56.15L658.98 60.47L658.91 60.47L656.12 56.15L656.12 62.17L652.15 62.17L652.15 50.03L652.15 50.03ZM667.83 50.03L671.89 50.03L671.89 58.16L677.6 58.16L677.6 62.17L667.84 62.17L667.84 50.03L667.83 50.03Z" />
	<path id="Layer" class="shp5" d="M651.51 97.18L651.51 105.16L661.34 105.16L660.41 115.51L651.51 117.92L651.51 126.22L667.87 121.69L667.99 120.34L669.87 99.32L670.06 97.18L667.91 97.18L651.51 97.18Z" />
	<path id="Layer" class="shp5" d="M651.51 81.02L651.51 85.98L651.51 88.98L651.51 89L670.76 89L670.76 89L670.79 89L670.95 87.21L671.31 83.16L671.5 81.02L651.51 81.02Z" />
	<path id="Layer" class="shp4" d="M777.75 55.8L777.75 51.66L767.86 51.66L767.86 63.78L777.75 63.78L777.75 59.63L772.01 59.63L772.01 55.8L777.75 55.8Z" />
	<path id="Layer" class="shp4" d="M791.78 51.66L781.9 51.66L781.9 55.91L786.02 59.63L781.9 59.63L781.9 63.78L791.78 63.78L791.78 59.74L788.03 55.8L791.78 55.8L791.78 51.66Z" />
	<path id="Layer" class="shp4" d="M806.14 51.66L796.25 51.66L796.25 55.91L800.22 59.63L796.25 59.63L796.25 63.78L806.14 63.78L806.14 59.74L802.23 55.8L806.14 55.8L806.14 51.66Z" />
	<path id="Layer" class="shp6" d="M760.91 134.42L755.1 69.31L818.9 69.31L813.09 134.41L786.96 141.66L760.91 134.42Z" />
	<path id="Layer" class="shp7" d="M787.05 136.12L808.14 130.32L813.08 74.73L787.05 74.73L787.05 136.12Z" />
	<path id="Layer" class="shp8" d="M768.39 98.66L769.09 106.63L787.05 98.66L787.05 90.67L768.39 98.66Z" />
	<path id="Layer" class="shp9" d="M806.95 82.14L787.05 90.67L787.05 98.66L806.26 90.12L806.95 82.14Z" />
	<path id="Layer" class="shp9" d="M787.05 119.52L786.99 119.53L778.08 117.14L777.5 110.78L769.49 110.78L770.6 123.31L786.99 127.84L787.05 127.83L787.05 119.52Z" />
	<path id="Layer" class="shp5" d="M787.05 98.66L787.05 106.63L796.81 106.63L795.92 117.06L787.05 119.53L787.05 127.83L803.39 123.3L805.54 98.66L787.05 98.66Z" />
	<path id="Layer" class="shp9" d="M787.05 98.66L768.39 98.66L769.09 106.63L787.05 106.63L787.05 98.66Z" />
	<path id="Layer" class="shp9" d="M787.05 90.12L787.05 82.14L786.97 82.14L766.97 82.14L767.68 90.12L787.05 90.12Z" />
	<path id="Layer" class="shp5" d="M787.05 82.14L787.05 90.02L787.05 90.12L806.26 90.12L806.95 82.14L787.05 82.14Z" />
	<path id="Layer" class="shp10" d="M882.25 64.25L952.25 64.25L952.25 134.25L882.25 134.25L882.25 64.25Z" />
	<path id="Layer" class="shp11" d="M929.27 118.94C930.68 121.24 932.52 122.93 935.76 122.93C938.49 122.93 940.23 121.57 940.23 119.69C940.23 117.43 938.44 116.63 935.44 115.32L933.8 114.61C929.05 112.59 925.9 110.06 925.9 104.7C925.9 99.77 929.65 96.01 935.53 96.01C939.71 96.01 942.72 97.47 944.88 101.28L939.76 104.57C938.63 102.55 937.42 101.75 935.53 101.75C933.6 101.75 932.38 102.97 932.38 104.57C932.38 106.54 933.6 107.34 936.43 108.56L938.07 109.27C943.66 111.67 946.81 114.11 946.81 119.6C946.81 125.52 942.16 128.77 935.91 128.77C929.8 128.77 925.86 125.86 923.93 122.04L929.27 118.94L929.27 118.94ZM906.04 119.51C907.07 121.34 908.01 122.89 910.27 122.89C912.43 122.89 913.79 122.04 913.79 118.76L913.79 96.39L920.37 96.39L920.37 118.85C920.37 125.66 916.38 128.76 910.55 128.76C905.28 128.76 902.23 126.03 900.68 122.75L906.04 119.51L906.04 119.51Z" />
	<path id="Layer" fill-rule="evenodd" class="shp5" d="M295.64 85.22C295.14 85.69 294.56 85.92 293.88 85.92C293.19 85.92 292.61 85.69 292.13 85.24C291.66 84.79 291.42 84.19 291.42 83.45C291.42 82.79 291.65 82.22 292.12 81.74C292.59 81.25 293.18 81.01 293.89 81.01C294.59 81.01 295.18 81.25 295.66 81.72C296.14 82.2 296.37 82.78 296.37 83.45C296.37 84.16 296.13 84.75 295.64 85.22ZM472.93 85.22C472.43 85.69 471.85 85.92 471.17 85.92C470.48 85.92 469.9 85.69 469.42 85.24C468.95 84.79 468.71 84.19 468.71 83.45C468.71 82.79 468.94 82.22 469.41 81.74C469.88 81.25 470.47 81.01 471.18 81.01C471.88 81.01 472.47 81.25 472.95 81.72C473.43 82.2 473.66 82.78 473.66 83.45C473.66 84.16 473.42 84.75 472.93 85.22ZM288.87 81.76L276.66 114.81L272.42 114.81L260.41 81.76L264.72 81.76L274.56 109.97L274.65 109.97L284.73 81.76L288.87 81.76ZM295.7 114.81L291.92 114.81L291.92 91.21L295.7 91.21L295.7 114.81ZM312.51 113.47C310.93 114.75 308.84 115.38 306.23 115.38C304 115.38 302.05 114.91 300.37 113.95L300.37 109.9C302.23 111.4 304.28 112.16 306.5 112.16C309.5 112.16 311 111.06 311 108.86C311 107.97 310.71 107.24 310.12 106.68C309.54 106.12 308.21 105.36 306.13 104.41C304.04 103.52 302.57 102.56 301.71 101.54C300.85 100.52 300.42 99.16 300.42 97.47C300.42 95.52 301.2 93.89 302.77 92.59C304.34 91.28 306.33 90.63 308.74 90.63C310.6 90.63 312.28 91 313.79 91.73L313.79 95.54C312.25 94.42 310.47 93.86 308.44 93.86C307.2 93.86 306.19 94.16 305.43 94.78C304.67 95.39 304.29 96.18 304.29 97.15C304.29 98.2 304.58 99 305.17 99.56C305.75 100.12 306.96 100.79 308.79 101.55C311.03 102.51 312.6 103.5 313.51 104.55C314.42 105.6 314.87 106.91 314.87 108.49C314.87 110.54 314.08 112.19 312.51 113.47ZM334.13 114.81L334.13 111.07L334.04 111.07C332.47 113.95 330.05 115.38 326.78 115.38C321.14 115.38 318.32 112.03 318.32 105.31L318.32 91.21L322.1 91.21L322.1 104.71C322.1 109.68 324 112.16 327.82 112.16C329.69 112.16 331.21 111.48 332.38 110.12C333.55 108.76 334.13 106.99 334.13 104.8L334.13 91.21L337.91 91.21L337.91 114.81L334.13 114.81ZM356.85 114.81L356.85 111.12L356.75 111.12C355.11 113.96 352.69 115.38 349.49 115.38C347.22 115.38 345.4 114.77 344.03 113.53C342.66 112.29 341.98 110.63 341.98 108.54C341.98 104.14 344.58 101.58 349.77 100.84L356.85 99.85C356.85 95.85 355.23 93.86 351.99 93.86C349.14 93.86 346.58 94.82 344.29 96.74L344.29 92.87C344.98 92.34 346.16 91.84 347.84 91.36C349.51 90.87 351 90.63 352.31 90.63C357.86 90.63 360.63 93.57 360.63 99.46L360.63 114.81L356.85 114.81ZM356.85 102.87L356.85 102.87L356.85 102.87L356.85 102.87ZM351.13 103.67C349.18 103.95 347.81 104.42 347.03 105.07C346.24 105.72 345.85 106.78 345.85 108.24C345.85 109.42 346.27 110.37 347.12 111.09C347.96 111.8 349.05 112.16 350.37 112.16C352.24 112.16 353.79 111.5 355.01 110.17C356.24 108.85 356.85 107.2 356.85 105.22L356.85 102.87L351.13 103.67ZM369.98 114.81L366.2 114.81L366.2 79.87L369.98 79.87L369.98 114.81ZM396.9 113.01C394.93 114.59 392.26 115.38 388.88 115.38C387.65 115.38 386.26 115.18 384.72 114.77C383.18 114.37 382.08 113.94 381.44 113.49L381.44 108.91C382.37 109.75 383.61 110.46 385.14 111.03C386.66 111.6 388.09 111.88 389.41 111.88C393.65 111.88 395.77 110.23 395.77 106.92C395.77 105.54 395.32 104.35 394.41 103.36C393.51 102.37 391.65 101.07 388.83 99.46C386.12 97.92 384.21 96.46 383.12 95.08C382.03 93.69 381.48 92.01 381.48 90.03C381.48 87.42 382.46 85.29 384.41 83.66C386.36 82.02 388.88 81.2 391.97 81.2C394.93 81.2 397.1 81.59 398.47 82.38L398.47 86.71C396.75 85.36 394.51 84.68 391.76 84.68C389.93 84.68 388.44 85.14 387.28 86.05C386.12 86.97 385.54 88.18 385.54 89.68C385.54 90.77 385.71 91.65 386.06 92.31C386.4 92.97 386.99 93.62 387.81 94.27C388.63 94.92 390.02 95.78 391.97 96.87C394.89 98.5 396.93 100.04 398.1 101.48C399.27 102.93 399.85 104.59 399.85 106.46C399.85 109.24 398.87 111.43 396.9 113.01ZM415 114.58C414.1 115.08 412.91 115.34 411.45 115.34C407.34 115.34 405.28 113.02 405.28 108.38L405.28 94.41L401.22 94.41L401.22 91.21L405.28 91.21L405.28 85.44L409.06 84.22L409.06 91.21L415 91.21L415 94.41L409.06 94.41L409.06 107.73C409.06 109.31 409.33 110.44 409.86 111.11C410.4 111.78 411.3 112.11 412.56 112.11C413.5 112.11 414.31 111.86 415 111.35L415 114.58L415 114.58ZM434.02 114.81L434.02 111.07L433.92 111.07C432.36 113.95 429.94 115.38 426.66 115.38C421.02 115.38 418.2 112.03 418.2 105.31L418.2 91.21L421.98 91.21L421.98 104.71C421.98 109.68 423.89 112.16 427.7 112.16C429.57 112.16 431.1 111.48 432.26 110.12C433.43 108.76 434.02 106.99 434.02 104.8L434.02 91.21L437.8 91.21L437.8 114.81L434.02 114.81ZM463.67 114.81L459.89 114.81L459.89 110.8L459.79 110.8C458.04 113.85 455.34 115.38 451.68 115.38C448.7 115.38 446.33 114.31 444.56 112.17C442.79 110.03 441.91 107.16 441.91 103.58C441.91 99.68 442.89 96.55 444.85 94.18C446.81 91.81 449.43 90.63 452.72 90.63C455.95 90.63 458.3 91.91 459.79 94.46L459.89 94.46L459.89 79.87L463.67 79.87L463.67 114.81ZM459.89 100.66C459.89 98.7 459.24 97.08 457.94 95.79C456.64 94.5 455.06 93.86 453.2 93.86C450.93 93.86 449.12 94.7 447.79 96.38C446.45 98.06 445.78 100.4 445.78 103.38C445.78 106.08 446.41 108.22 447.67 109.8C448.93 111.37 450.63 112.16 452.76 112.16C454.84 112.16 456.54 111.41 457.88 109.9C459.22 108.39 459.89 106.47 459.89 104.14L459.89 100.66ZM473.17 114.81L469.39 114.81L469.39 91.21L473.17 91.21L473.17 114.81ZM497.51 111.96C495.38 114.24 492.53 115.38 488.95 115.38C485.46 115.38 482.68 114.27 480.59 112.05C478.51 109.83 477.47 106.91 477.47 103.28C477.47 99.38 478.54 96.3 480.68 94.03C482.81 91.76 485.75 90.63 489.5 90.63C493.01 90.63 495.75 91.73 497.73 93.92C499.71 96.1 500.7 99.1 500.7 102.91C500.7 106.66 499.64 109.68 497.51 111.96ZM494.86 96.23C493.55 94.65 491.67 93.86 489.23 93.86C486.8 93.86 484.88 94.67 483.46 96.29C482.05 97.91 481.34 100.19 481.34 103.14C481.34 105.97 482.05 108.18 483.48 109.77C484.9 111.36 486.81 112.16 489.23 112.16C491.69 112.16 493.57 111.37 494.87 109.81C496.18 108.24 496.83 105.99 496.83 103.05C496.83 100.09 496.18 97.81 494.86 96.23ZM230.03 70.73L243.8 76.24L243.8 120.32L230.03 125.83L208.16 103.96L194.21 114.81L188.7 112.05L188.7 84.51L194.21 81.75L208.16 92.6L230.03 70.73ZM194.21 106.54L202.48 98.28L194.21 90.02L194.21 106.54ZM230.03 109.61L230.03 86.96L215.46 98.28L230.03 109.61Z" />
	<path id="Layer" class="shp5" d="M548.5 61L549.5 61L549.5 135L548.5 135L548.5 61Z" />
	<path id="форма 1" class="shp5" d="M85 46L1064 46L1064 161L85 161L85 46Z" />
	<text id=" " style="transform: matrix(1,0,0,1,85,46)" >
	</text>
	<text id="HERE IS A PLACE FOR YOUR ADVERTI" style="transform: matrix(1,0,0,1,119,84)" >
		<tspan x="0" y="43" class="txt12">HERE IS A PLACE FOR YOUR ADVERTISING</tspan>
	</text>
</svg>