<svg xmlns="http://www.w3.org/2000/svg" viewBox="0 0 1140 360" width="1140" height="360">
	<style>
		tspan { white-space:pre }
		.shp0 { fill: #1d4380 } 
		.shp1 { fill: #ffffff } 
		.shp2 { fill: #59b4d9 } 
		.shp3 { fill: #55add3 } 
		.shp4 { opacity: 0.502;fill: #ffffff } 
		.shp5 { fill: #b8d432 } 
		.shp6 { opacity: 0.102;fill: #6699cc } 
		.shp7 { fill: #3999c6 } 
		.shp8 { fill: #7fba00 } 
		.shp9 { fill: #a0a1a2 } 
		.shp10 { fill: #7a7a7a } 
		.shp11 { fill: #fcd116 } 
		.shp12 { opacity: 0.2;fill: #ffffff } 
		.txt13 { font-size: 43px;fill: #000000;font-weight: 400;font-family: "DejaVuSans", "DejaVu Sans" } 
	</style>
	<path id="Layer" class="shp0" d="M0 0L1140 0L1140 360L0 360L0 0Z" />
	<path id="Layer" fill-rule="evenodd" class="shp1" d="M187.31 117L187.31 95.39C187.31 93.69 187.41 91.6 187.62 89.13L187.53 89.13C187.17 90.58 186.85 91.62 186.57 92.25L175.56 117L173.72 117L162.74 92.43C162.42 91.71 162.1 90.61 161.77 89.13L161.68 89.13C161.8 90.41 161.86 92.52 161.86 95.44L161.86 117L158.22 117L158.22 84.79L163.21 84.79L173.09 107.25C173.86 108.97 174.35 110.26 174.57 111.11L174.71 111.11C175.35 109.35 175.87 108.03 176.26 107.16L186.34 84.79L191.06 84.79L191.06 117L187.31 117ZM200.09 88.16C199.43 88.16 198.87 87.94 198.41 87.49C197.94 87.04 197.71 86.47 197.71 85.78C197.71 85.09 197.94 84.52 198.41 84.06C198.87 83.6 199.43 83.38 200.09 83.38C200.77 83.38 201.34 83.6 201.81 84.06C202.28 84.52 202.52 85.09 202.52 85.78C202.52 86.44 202.28 87 201.81 87.46C201.34 87.93 200.77 88.16 200.09 88.16ZM201.89 117L198.21 117L198.21 94L201.89 94L201.89 117ZM224.2 115.94C222.43 117.01 220.33 117.54 217.91 117.54C214.63 117.54 211.98 116.47 209.97 114.34C207.95 112.2 206.95 109.44 206.95 106.04C206.95 102.25 208.03 99.21 210.2 96.91C212.38 94.61 215.27 93.46 218.9 93.46C220.92 93.46 222.7 93.84 224.24 94.58L224.24 98.36C222.54 97.16 220.71 96.56 218.76 96.56C216.41 96.56 214.48 97.4 212.98 99.09C211.47 100.77 210.72 102.98 210.72 105.72C210.72 108.42 211.43 110.55 212.84 112.1C214.26 113.66 216.16 114.44 218.54 114.44C220.54 114.44 222.43 113.77 224.2 112.44L224.2 115.94L224.2 115.94ZM238.15 96.99C236.58 96.99 235.26 97.73 234.21 99.21C233.15 100.7 232.62 102.72 232.62 105.28L232.62 117L228.94 117L228.94 94L232.62 94L232.62 98.74L232.71 98.74C233.24 97.12 234.04 95.86 235.12 94.95C236.19 94.05 237.4 93.6 238.73 93.6C239.69 93.6 240.42 93.7 240.93 93.91L240.93 97.73C240.29 97.24 239.36 96.99 238.15 96.99ZM245.57 114.32C243.54 112.17 242.53 109.32 242.53 105.77C242.53 101.91 243.59 98.89 245.7 96.72C247.81 94.55 250.66 93.46 254.26 93.46C257.68 93.46 260.36 94.52 262.29 96.63C264.21 98.74 265.17 101.67 265.17 105.41C265.17 109.08 264.13 112.02 262.06 114.23C259.99 116.44 257.2 117.54 253.72 117.54C250.32 117.54 247.6 116.47 245.57 114.32ZM253.99 96.56C251.62 96.56 249.75 97.37 248.37 98.98C246.99 100.59 246.3 102.81 246.3 105.64C246.3 108.36 247 110.51 248.39 112.08C249.79 113.65 251.65 114.44 253.99 114.44C256.37 114.44 258.2 113.67 259.48 112.13C260.76 110.59 261.4 108.39 261.4 105.55C261.4 102.67 260.76 100.46 259.48 98.9C258.2 97.34 256.37 96.56 253.99 96.56ZM268.83 112.22C270.84 113.7 273.05 114.44 275.46 114.44C278.69 114.44 280.31 113.36 280.31 111.21C280.31 110.59 280.17 110.07 279.9 109.65C279.62 109.22 279.25 108.84 278.77 108.51C278.3 108.18 277.75 107.89 277.11 107.62C276.47 107.36 275.79 107.09 275.06 106.8C274.04 106.4 273.14 105.99 272.37 105.58C271.6 105.17 270.96 104.7 270.44 104.19C269.92 103.67 269.53 103.08 269.27 102.42C269.01 101.77 268.88 100.99 268.88 100.11C268.88 99.03 269.13 98.08 269.62 97.25C270.11 96.42 270.77 95.72 271.6 95.16C272.42 94.6 273.36 94.17 274.42 93.89C275.47 93.6 276.56 93.46 277.68 93.46C279.68 93.46 281.46 93.81 283.03 94.49L283.03 98.22C281.34 97.12 279.39 96.56 277.19 96.56C276.5 96.56 275.88 96.64 275.33 96.8C274.77 96.95 274.3 97.18 273.9 97.46C273.5 97.75 273.2 98.09 272.98 98.48C272.76 98.88 272.65 99.32 272.65 99.8C272.65 100.4 272.76 100.9 272.98 101.3C273.2 101.71 273.51 102.07 273.93 102.38C274.35 102.69 274.86 102.98 275.46 103.23C276.06 103.49 276.74 103.77 277.51 104.06C278.52 104.45 279.44 104.86 280.25 105.27C281.05 105.68 281.74 106.14 282.31 106.66C282.88 107.18 283.32 107.77 283.63 108.45C283.93 109.12 284.09 109.92 284.09 110.85C284.09 111.99 283.83 112.98 283.33 113.81C282.83 114.65 282.16 115.35 281.32 115.9C280.48 116.46 279.52 116.87 278.43 117.14C277.33 117.41 276.19 117.54 274.99 117.54C272.62 117.54 270.57 117.08 268.83 116.17L268.83 112.22ZM290.39 114.32C288.36 112.17 287.35 109.32 287.35 105.77C287.35 101.91 288.4 98.89 290.51 96.72C292.62 94.55 295.48 93.46 299.07 93.46C302.5 93.46 305.18 94.52 307.1 96.63C309.03 98.74 309.99 101.67 309.99 105.41C309.99 109.08 308.95 112.02 306.88 114.23C304.8 116.44 302.02 117.54 298.53 117.54C295.13 117.54 292.42 116.47 290.39 114.32ZM293.19 98.98C291.81 100.59 291.12 102.81 291.12 105.64C291.12 108.36 291.82 110.51 293.21 112.08C294.6 113.65 296.47 114.44 298.8 114.44C301.18 114.44 303.01 113.67 304.3 112.13C305.57 110.59 306.22 108.39 306.22 105.55C306.22 102.67 305.58 100.46 304.3 98.9C303.01 97.34 301.18 96.56 298.8 96.56C296.44 96.56 294.56 97.37 293.19 98.98ZM326.41 86.18C325.69 85.78 324.87 85.58 323.96 85.58C321.38 85.58 320.1 87.2 320.1 90.45L320.1 94L325.49 94L325.49 97.15L320.1 97.15L320.1 117L316.44 117L316.44 97.15L312.51 97.15L312.51 94L316.44 94L316.44 90.27C316.44 87.86 317.13 85.96 318.53 84.56C319.92 83.16 321.66 82.46 323.74 82.46C324.86 82.46 325.75 82.59 326.41 82.86L326.41 86.18L326.41 86.18ZM339.28 116.78C338.41 117.25 337.27 117.49 335.84 117.49C331.82 117.49 329.8 115.25 329.8 110.76L329.8 97.14L325.85 97.14L325.85 94L329.8 94L329.8 88.39L333.49 87.2L333.49 94L339.28 94L339.28 97.14L333.49 97.14L333.49 110.1C333.49 111.65 333.75 112.75 334.27 113.41C334.8 114.07 335.67 114.39 336.88 114.39C337.81 114.39 338.61 114.14 339.28 113.63L339.28 116.78L339.28 116.78ZM376.39 117L372.98 107.97L359.32 107.97L356.11 117L351.91 117L364.27 84.79L368.17 84.79L380.57 117L376.39 117ZM371.75 104.58L366.69 90.86C366.53 90.41 366.36 89.69 366.2 88.7L366.11 88.7C365.96 89.61 365.79 90.33 365.59 90.86L360.58 104.58L371.75 104.58ZM386.42 113.86L399.89 113.86L399.89 117L381 117L381 115.85L394.61 97.14L382.28 97.14L382.28 94L400.03 94L400.03 95.06L386.42 113.86ZM418.87 117L418.87 113.36L418.78 113.36C417.26 116.15 414.89 117.54 411.69 117.54C406.2 117.54 403.46 114.28 403.46 107.75L403.46 94L407.13 94L407.13 107.16C407.13 112.01 408.98 114.44 412.69 114.44C414.49 114.44 415.97 113.78 417.13 112.45C418.29 111.13 418.87 109.39 418.87 107.25L418.87 94L422.56 94L422.56 117L418.87 117ZM438.37 96.99C436.8 96.99 435.49 97.73 434.43 99.21C433.38 100.7 432.85 102.72 432.85 105.28L432.85 117L429.16 117L429.16 94L432.85 94L432.85 98.74L432.94 98.74C433.46 97.12 434.26 95.86 435.34 94.95C436.42 94.05 437.62 93.6 438.96 93.6C439.91 93.6 440.65 93.7 441.16 93.91L441.16 97.73C440.51 97.24 439.59 96.99 438.37 96.99ZM446.57 106.42C446.63 108.98 447.32 110.96 448.64 112.35C449.96 113.74 451.77 114.44 454.08 114.44C456.67 114.44 459.05 113.59 461.22 111.88L461.22 115.34C459.2 116.81 456.52 117.54 453.2 117.54C449.95 117.54 447.4 116.5 445.54 114.41C443.68 112.32 442.76 109.38 442.76 105.59C442.76 102.01 443.77 99.1 445.8 96.84C447.83 94.59 450.35 93.46 453.36 93.46C456.37 93.46 458.69 94.44 460.34 96.38C461.99 98.33 462.81 101.03 462.81 104.49L462.81 106.42L446.57 106.42ZM459.04 103.3C459.02 101.17 458.51 99.52 457.5 98.34C456.49 97.15 455.09 96.56 453.29 96.56C451.55 96.56 450.08 97.18 448.86 98.43C447.65 99.67 446.9 101.29 446.62 103.3L459.04 103.3ZM493.5 55L493.5 145L492.5 145L492.5 55L493.5 55Z" />
	<path id="Layer" class="shp2" d="M597.03 128.48C590.68 133.33 583.21 135.69 575.79 135.69C565.26 135.69 554.85 130.97 547.96 121.97C536.21 106.62 539.11 84.66 554.49 72.9C560.83 68.02 568.31 65.69 575.72 65.69C586.25 65.69 596.67 70.42 603.55 79.43C615.31 94.77 612.38 116.73 597.03 128.48" />
	<path id="Layer" class="shp1" d="M590.6 106.83C593.14 110.14 597.86 110.74 601.15 108.23C601.33 108.1 601.46 107.94 601.62 107.8C604.99 110.18 607.33 111.75 608.65 112.65C609.04 111.63 609.31 110.66 609.59 109.65C608.2 108.61 606.31 107.16 603.58 104.95C604.48 102.6 604.2 99.85 602.56 97.71C600.22 94.68 596.08 93.91 592.85 95.78C589.28 92.58 585.37 88.91 581.24 84.81C594.07 77.91 603.19 78.92 603.19 78.92C601.67 76.98 599.96 75.28 598.14 73.74C592.73 72.91 584.32 73 574.71 78.11L574.71 78.11L574.71 78.11C571.51 74.75 568.25 71.16 564.93 67.31C563.34 67.81 561.79 68.44 560.29 69.19C562.74 73.2 566.04 77.24 569.75 81.19L569.77 81.21C566.68 83.37 563.23 86.27 560.05 89.63C559.64 90.07 559.25 90.5 558.87 90.94C556.97 90.54 554.97 90.66 553.11 91.33C549.94 84.49 550.19 79 550.69 76.16C549.32 77.61 548.03 79.12 546.92 80.74C546.09 84.12 545.86 89 548.3 94.87C545.47 98.57 545.34 103.82 548.29 107.69C548.54 108.01 548.8 108.31 549.08 108.59C547.79 112.99 547.21 117.22 547.03 120.86L547.69 122.12C549.37 124.27 551.48 126.09 553.52 127.73C553.27 123.88 553.54 118.2 555.92 111.81C557.56 111.93 559.23 111.67 560.8 111.01C561.69 111.8 562.63 112.6 563.63 113.41C567.07 116.13 570.49 118.24 573.83 119.91C573.66 121.61 574.09 123.37 575.19 124.84C577.55 127.88 581.92 128.45 584.97 126.12C585.6 125.64 586.1 125.05 586.52 124.42C591.97 125.63 596.72 125.85 600.25 125.85C600.79 125.85 603.3 122.44 604.74 120.32C602.59 120.77 596.22 121.65 587.51 119.15C587.3 118.17 586.9 117.22 586.26 116.37C584.04 113.47 580 112.85 576.99 114.79C573.96 113.14 570.79 111.09 567.53 108.5C566.87 107.98 566.23 107.46 565.62 106.93C567.62 103.79 567.83 99.75 566.07 96.36C566.47 95.96 566.86 95.56 567.29 95.16C570.52 92.14 573.57 89.72 576.42 87.78L576.09 87.45L576.42 87.77L576.42 87.77C580.79 91.81 585.42 95.64 589.81 99.06C588.65 101.52 588.83 104.52 590.6 106.83L590.6 106.83Z" />
	<path id="Layer" class="shp3" d="M702.84 135.69C701.11 135.69 699.49 135.02 698.27 133.8L669.73 105.25C668.52 104.05 667.84 102.39 667.84 100.69C667.84 98.99 668.52 97.33 669.73 96.13L698.27 67.58C699.49 66.36 701.11 65.69 702.84 65.69C704.56 65.69 706.18 66.36 707.4 67.58L735.94 96.13C737.16 97.34 737.83 98.96 737.83 100.69C737.83 102.42 737.16 104.04 735.94 105.26L707.4 133.8C706.18 135.02 704.56 135.69 702.84 135.69Z" />
	<path id="Layer" class="shp1" d="M721.89 95.22C718.87 95.22 716.42 97.67 716.42 100.69C716.42 101.8 716.75 102.83 717.32 103.69L706.48 114.53C706.19 114.33 705.88 114.16 705.56 114.01L705.56 86.35C707.2 85.41 708.31 83.66 708.31 81.64C708.31 78.61 705.86 76.16 702.83 76.16C699.81 76.16 697.36 78.61 697.36 81.64C697.36 83.66 698.48 85.41 700.11 86.35L700.11 114.01C699.8 114.16 699.5 114.31 699.22 114.51L688.37 103.65C688.92 102.8 689.25 101.79 689.25 100.69C689.25 97.67 686.8 95.22 683.78 95.22C680.75 95.22 678.3 97.67 678.3 100.69C678.3 103.72 680.75 106.17 683.78 106.17C684.4 106.17 685 106.04 685.56 105.84L696.97 117.25C696.64 118.02 696.46 118.86 696.46 119.75C696.46 123.27 699.31 126.12 702.83 126.12C706.35 126.12 709.2 123.27 709.2 119.75C709.2 118.88 709.03 118.05 708.71 117.3L720.15 105.86C720.7 106.04 721.28 106.17 721.89 106.17C724.91 106.17 727.36 103.72 727.36 100.69C727.36 97.67 724.91 95.22 721.89 95.22L721.89 95.22Z" />
	<path id="Layer" class="shp4" d="M701.5 82.85L704 80.35L724.47 100.81L721.97 103.31L701.5 82.85Z" />
	<path id="Layer" class="shp4" d="M681.12 100.75L701.58 80.29L704.08 82.78L683.61 103.25L681.12 100.75Z" />
	<path id="Layer" class="shp5" d="M706.57 119.75C706.57 121.84 704.87 123.54 702.77 123.54C700.68 123.54 698.98 121.85 698.98 119.75C698.98 117.65 700.68 115.96 702.77 115.96C704.87 115.96 706.57 117.66 706.57 119.75Z" />
	<path id="Layer" class="shp5" d="M705.88 81.64C705.88 83.32 704.52 84.68 702.83 84.68C701.15 84.68 699.79 83.32 699.79 81.64C699.79 79.95 701.15 78.59 702.83 78.59C704.52 78.59 705.88 79.95 705.88 81.64Z" />
	<path id="Layer" class="shp5" d="M686.82 100.69C686.82 102.37 685.46 103.74 683.78 103.74C682.1 103.74 680.74 102.37 680.74 100.69C680.74 99.01 682.1 97.65 683.78 97.65C685.46 97.65 686.82 99.01 686.82 100.69Z" />
	<path id="Layer" class="shp5" d="M724.94 100.69C724.94 102.37 723.57 103.74 721.89 103.74C720.21 103.74 718.85 102.37 718.85 100.69C718.85 99.01 720.21 97.65 721.89 97.65C723.57 97.65 724.94 99.01 724.94 100.69Z" />
	<path id="Layer" class="shp6" d="M707.4 67.58C706.18 66.36 704.56 65.69 702.84 65.69C701.11 65.69 699.49 66.36 698.27 67.58L669.73 96.13C668.52 97.33 667.83 98.99 667.83 100.69C667.83 102.39 668.52 104.06 669.73 105.26L685.89 121.42L716.29 76.47L707.4 67.58L707.4 67.58Z" />
	<path id="Layer" class="shp7" d="M803.51 75.25L803.51 126.13C803.51 131.41 815.33 135.69 829.92 135.69L829.92 75.25L803.51 75.25Z" />
	<path id="Layer" class="shp2" d="M829.55 135.69L829.92 135.69C844.5 135.69 856.32 131.41 856.32 126.13L856.32 75.25L829.55 75.25L829.55 135.69L829.55 135.69Z" />
	<path id="Layer" class="shp1" d="M856.32 75.25C856.32 80.54 844.5 84.82 829.92 84.82C815.34 84.82 803.51 80.54 803.51 75.25C803.51 69.97 815.34 65.69 829.92 65.69C844.5 65.69 856.32 69.97 856.32 75.25Z" />
	<path id="Layer" class="shp8" d="M850.92 74.7C850.92 78.19 841.52 81.01 829.92 81.01C818.32 81.01 808.91 78.19 808.91 74.7C808.91 71.22 818.32 68.39 829.92 68.39C841.52 68.39 850.92 71.22 850.92 74.7Z" />
	<path id="Layer" class="shp5" d="M846.52 78.56C849.27 77.49 850.93 76.16 850.93 74.71C850.93 71.22 841.52 68.4 829.92 68.4C818.32 68.4 808.91 71.22 808.91 74.71C808.91 76.16 810.56 77.49 813.31 78.56C817.15 77.07 823.15 76.11 829.92 76.11C836.68 76.11 842.68 77.07 846.52 78.56" />
	<path id="Layer" class="shp1" d="M846.98 116.5C845.57 117.68 843.65 118.27 841.17 118.27L832.87 118.27L832.87 96.63L840.74 96.63C843.22 96.63 845.12 97.08 846.42 98.02C847.65 98.9 848.26 100.13 848.26 101.7C848.26 102.95 847.81 104.02 846.9 104.95C846.13 105.73 845.19 106.26 844.04 106.58L844.04 106.63C845.59 106.82 846.85 107.41 847.78 108.39C848.66 109.33 849.11 110.48 849.11 111.81C849.12 113.79 848.4 115.34 846.98 116.5M826.76 115.23C824.68 117.26 821.88 118.27 818.38 118.27L810.72 118.27L810.72 96.63L818.38 96.63C826.07 96.63 829.91 100.13 829.91 107.17C829.91 110.53 828.87 113.23 826.76 115.23Z" />
	<path id="Layer" class="shp7" d="M817.98 100.58L815.58 100.58L815.58 114.32L818.01 114.32C820.14 114.32 821.8 113.65 823.02 112.37C824.19 111.09 824.79 109.39 824.79 107.23C824.79 105.2 824.19 103.6 823.05 102.42C821.85 101.19 820.17 100.58 817.98 100.58" />
	<path id="Layer" class="shp2" d="M842.23 104.61C842.82 104.1 843.11 103.44 843.11 102.61C843.11 101 841.94 100.2 839.56 100.2L837.73 100.2L837.73 105.33L839.89 105.33C840.88 105.33 841.68 105.08 842.23 104.61" />
	<path id="Layer" class="shp2" d="M843.03 109.7C842.39 109.23 841.52 108.96 840.39 108.96L837.72 108.96L837.72 114.66L840.36 114.66C841.49 114.66 842.39 114.4 843.06 113.86C843.67 113.33 843.99 112.64 843.99 111.73C844 110.88 843.68 110.18 843.03 109.7Z" />
	<path id="Layer" class="shp9" d="M922 127.85C922 129.25 922.98 130.51 924.66 130.51L989.34 130.51C990.74 130.51 992 129.53 992 127.85L992 81.51L922 81.51L922 127.85L922 127.85Z" />
	<path id="Layer" class="shp10" d="M989.34 70.87L924.66 70.87C922.98 70.87 922 72.13 922 73.53L922 81.51L992 81.51L992 73.53C992 72.13 991.02 70.87 989.34 70.87" />
	<path id="Layer" class="shp1" d="M948.32 86.13L965.96 86.13L965.96 96.77L948.32 96.77L948.32 86.13Z" />
	<path id="Layer" class="shp11" d="M948.32 100.55L965.96 100.55L965.96 111.19L948.32 111.19L948.32 100.55Z" />
	<path id="Layer" class="shp11" d="M969.32 100.55L986.96 100.55L986.96 111.19L969.32 111.19L969.32 100.55Z" />
	<path id="Layer" class="shp1" d="M969.32 86.13L986.96 86.13L986.96 96.77L969.32 96.77L969.32 86.13Z" />
	<path id="Layer" class="shp1" d="M927.32 86.13L944.96 86.13L944.96 96.77L927.32 96.77L927.32 86.13Z" />
	<path id="Layer" class="shp1" d="M927.32 100.55L944.96 100.55L944.96 111.19L927.32 111.19L927.32 100.55Z" />
	<path id="Layer" class="shp11" d="M927.32 114.83L944.96 114.83L944.96 125.47L927.32 125.47L927.32 114.83Z" />
	<path id="Layer" class="shp11" d="M948.32 114.83L965.96 114.83L965.96 125.47L948.32 125.47L948.32 114.83Z" />
	<path id="Layer" class="shp11" d="M969.32 114.83L986.96 114.83L986.96 125.47L969.32 125.47L969.32 114.83Z" />
	<path id="Layer" class="shp12" d="M924.66 70.87C923.4 70.87 922 72.13 922 73.53L922 127.85C922 129.25 923.4 130.51 924.66 130.51L927.6 130.51L983.04 70.87L924.66 70.87Z" />
	<path id="форма 1" class="shp1" d="M81 45L1073 45L1073 161L81 161L81 45Z" />
	<text id="HERE IS A PLACE FOR YOUR ADVERTI" style="transform: matrix(1,0,0,1,125,86)" >
		<tspan x="0" y="43" class="txt13">HERE IS A PLACE FOR YOUR ADVERTISING</tspan>
	</text>
</svg>